<svg xmlns="http://www.w3.org/2000/svg" viewBox="0 0 122.22 40"><defs><style>.a{fill:none;}.b{fill:#f26728;}.c{fill:#1d2a38;}</style></defs><rect class="a" x="5.65" y="16.3" width="7.51" height="7.51" transform="translate(-11.43 12.53) rotate(-45)"/><rect class="a" x="16.38" y="5.57" width="7.51" height="7.51" transform="translate(-0.7 16.97) rotate(-45)"/><rect class="a" x="16.38" y="27.03" width="7.51" height="7.51" transform="translate(-15.87 23.25) rotate(-45)"/><rect class="a" x="27.11" y="16.3" width="7.51" height="7.51" transform="translate(-5.14 27.7) rotate(-45)"/><rect class="b" x="23.43" y="14.93" width="7.51" height="2.9" transform="translate(-3.62 24.02) rotate(-45)"/><rect class="b" x="12.7" y="25.65" width="7.51" height="2.9" transform="translate(-14.35 19.57) rotate(-45)"/><rect class="b" x="20.06" y="11.56" width="7.51" height="2.9" transform="translate(-2.22 20.65) rotate(-45)"/><rect class="b" x="9.33" y="22.28" width="7.51" height="2.9" transform="translate(-12.95 16.2) rotate(-45)"/><rect class="b" x="11.64" y="12.62" width="2.9" height="7.51" transform="translate(-7.75 14.05) rotate(-45)"/><rect class="b" x="15.01" y="9.25" width="2.9" height="7.51" transform="translate(-4.38 15.45) rotate(-45)"/><rect class="b" x="25.74" y="19.98" width="2.9" height="7.51" transform="translate(-8.82 26.17) rotate(-45)"/><rect class="b" x="22.36" y="23.35" width="2.9" height="7.51" transform="translate(-12.19 24.78) rotate(-45)"/><polygon class="c" points="27.49 32.83 25.44 30.78 20.14 36.09 14.83 30.78 12.78 32.83 20.14 40.19 27.49 32.83"/><polygon class="c" points="9.41 14.75 7.36 12.7 0 20.05 7.36 27.41 9.41 25.36 4.1 20.05 9.41 14.75"/><polygon class="c" points="32.91 12.7 30.86 14.75 36.17 20.05 30.86 25.36 32.91 27.41 40.27 20.05 32.91 12.7"/><polygon class="c" points="25.44 9.33 27.49 7.28 20.14 -0.08 12.78 7.28 14.83 9.33 20.14 4.02 25.44 9.33"/><path class="c" d="M49.36,16.25H54.2l-.32,1.57H47.17L49.29,7.55h6.44L55.4,9.12H50.84l-.55,2.66H54.2l-.32,1.57H50Z"/><path class="c" d="M61.37,15.05q.56-1.17,2.35-4.38l1.77-3.12H68L65.91,17.82H64l1.09-4.9c.19-.82.42-1.79.7-2.91h-.06q-.76,1.62-2.95,5.48l-1.35,2.33H60.22l-.82-5.55c-.11-.74-.21-1.5-.3-2.26H59c-.07.75-.2,1.65-.4,2.69l-1,5.12H55.73L57.86,7.55h2.41l.46,2.87c.19,1.2.39,2.74.6,4.63Z"/><path class="c" d="M70.14,17.82H68.26L70.39,7.55H73a7.49,7.49,0,0,1,2.23.26,2.53,2.53,0,0,1,1.34.93,2.54,2.54,0,0,1,.41,1.45,3.31,3.31,0,0,1-.32,1.48,3.19,3.19,0,0,1-.92,1.15,4.37,4.37,0,0,1-1.51.76,7.6,7.6,0,0,1-2.07.26A8.51,8.51,0,0,1,71,13.77ZM71.3,12.2a5,5,0,0,0,.91.07,4.73,4.73,0,0,0,1.26-.15,2.7,2.7,0,0,0,.89-.4,1.8,1.8,0,0,0,.53-.64,2,2,0,0,0,.17-.81,1,1,0,0,0-.19-.61,1.2,1.2,0,0,0-.51-.37,2,2,0,0,0-.51-.13,7.64,7.64,0,0,0-.77,0H71.94Z"/><path class="c" d="M79.68,16.25h4.84l-.32,1.57H77.48L79.61,7.55h1.87Z"/><path class="c" d="M91.89,7.36a4.94,4.94,0,0,1,1.63.25,3.19,3.19,0,0,1,2.06,2,4.64,4.64,0,0,1,.29,1.69,7.36,7.36,0,0,1-.13,1.33,7.62,7.62,0,0,1-.41,1.48,7.71,7.71,0,0,1-.74,1.46A5.42,5.42,0,0,1,92,17.68,5.39,5.39,0,0,1,90,18a4.94,4.94,0,0,1-1.63-.25,3.19,3.19,0,0,1-2.06-2,4.64,4.64,0,0,1-.29-1.69,7.36,7.36,0,0,1,.13-1.33,7.62,7.62,0,0,1,.41-1.48,7.71,7.71,0,0,1,.74-1.46,5.46,5.46,0,0,1,1.1-1.25,5.24,5.24,0,0,1,1.51-.89A5.39,5.39,0,0,1,91.89,7.36ZM91.76,9a3,3,0,0,0-1.14.21,3.44,3.44,0,0,0-1,.59,4.52,4.52,0,0,0-.75.87,5.68,5.68,0,0,0-.55,1.07A7.61,7.61,0,0,0,88,12.87a6.93,6.93,0,0,0-.11,1.19,2.88,2.88,0,0,0,.16,1,2,2,0,0,0,.44.74,1.76,1.76,0,0,0,.7.45,2.75,2.75,0,0,0,.93.15,3,3,0,0,0,1.14-.21,3.44,3.44,0,0,0,1-.59,4.52,4.52,0,0,0,.75-.87,5.68,5.68,0,0,0,.55-1.07,7.61,7.61,0,0,0,.33-1.18A6.93,6.93,0,0,0,94,11.31a2.38,2.38,0,0,0-.6-1.76A2.18,2.18,0,0,0,91.76,9Z"/><path class="c" d="M98.81,17.82l.86-4.15L97.21,7.55h1.93l1.69,4.31,2.9-4.31h2.13l-4.33,6.16-.85,4.11Z"/><path class="c" d="M107.29,16.25h4.84l-.32,1.57h-6.72l2.13-10.27h6.44l-.33,1.57h-4.56l-.55,2.66h3.91l-.32,1.57h-3.92Z"/><path class="c" d="M115.85,16.25h4.84l-.32,1.57h-6.71l2.12-10.27h6.44l-.33,1.57h-4.56l-.55,2.66h3.91l-.32,1.57h-3.91Z"/><path class="b" d="M47.77,25.35l.11.91h0a3.42,3.42,0,0,1,.93-.81A2.38,2.38,0,0,1,50,25.19a2.18,2.18,0,0,1,1.33.38,1.79,1.79,0,0,1,.69.93h0a3.32,3.32,0,0,1,1-1,2.31,2.31,0,0,1,1.22-.32,2,2,0,0,1,1.61.61,2.46,2.46,0,0,1,.56,1.71v4.28h-.55V27.64c0-1.3-.56-1.95-1.66-1.95a1.86,1.86,0,0,0-1.15.36,3.93,3.93,0,0,0-.9,1v4.7H51.6V27.44a1.81,1.81,0,0,0-.44-1.28,1.63,1.63,0,0,0-1.24-.47,2,2,0,0,0-1.1.3,3.89,3.89,0,0,0-.94.86v4.94h-.55V25.35Z"/><path class="b" d="M58.28,30a1.77,1.77,0,0,1,.63-1.42A2.36,2.36,0,0,1,60.52,28a5.91,5.91,0,0,1,2,.38v-.82A1.86,1.86,0,0,0,62,26.16a2.11,2.11,0,0,0-1.52-.47,5.32,5.32,0,0,0-1.65.33V25.5a2.32,2.32,0,0,1,.69-.22,5.36,5.36,0,0,1,1-.09,2.79,2.79,0,0,1,1.92.58,2.34,2.34,0,0,1,.63,1.78v2.18c0,.46,0,1.14.05,2.06h-.49l-.1-.75h0a2.55,2.55,0,0,1-.92.65,2.87,2.87,0,0,1-1.18.28,2.2,2.2,0,0,1-1.52-.51A1.91,1.91,0,0,1,58.28,30Zm4.22.51v-1.6a7.12,7.12,0,0,0-.93-.28,6.63,6.63,0,0,0-1.12-.07,1.74,1.74,0,0,0-1.18.37A1.36,1.36,0,0,0,58.85,30a1.45,1.45,0,0,0,.42,1.14,1.61,1.61,0,0,0,1.11.38,2.39,2.39,0,0,0,1.25-.3A3.52,3.52,0,0,0,62.5,30.46Z"/><path class="b" d="M65.94,25.35l.1,1h0a3,3,0,0,1,1-.89,2.4,2.4,0,0,1,1.2-.32,1.93,1.93,0,0,1,1.54.6,2.59,2.59,0,0,1,.52,1.76v4.24h-.54V27.62a2.4,2.4,0,0,0-.37-1.45,1.46,1.46,0,0,0-1.22-.48,2.07,2.07,0,0,0-1.14.36,3.47,3.47,0,0,0-1,1v4.75H65.5V25.35Z"/><path class="b" d="M72.15,30a1.8,1.8,0,0,1,.62-1.42A2.37,2.37,0,0,1,74.38,28a5.91,5.91,0,0,1,2,.38v-.82a1.86,1.86,0,0,0-.48-1.39,2.08,2.08,0,0,0-1.51-.47,5.32,5.32,0,0,0-1.66.33V25.5a2.3,2.3,0,0,1,.7-.22,5.2,5.2,0,0,1,1-.09,2.74,2.74,0,0,1,1.91.58,2.34,2.34,0,0,1,.63,1.78v2.18c0,.46,0,1.14.06,2.06h-.5l-.1-.75h0a2.69,2.69,0,0,1-.93.65,2.87,2.87,0,0,1-1.18.28,2.22,2.22,0,0,1-1.52-.51A1.9,1.9,0,0,1,72.15,30Zm4.21.51v-1.6a6.69,6.69,0,0,0-.93-.28,6.55,6.55,0,0,0-1.12-.07,1.69,1.69,0,0,0-1.17.37A1.34,1.34,0,0,0,72.71,30a1.45,1.45,0,0,0,.42,1.14,1.61,1.61,0,0,0,1.11.38,2.39,2.39,0,0,0,1.25-.3A3.52,3.52,0,0,0,76.36,30.46Z"/><path class="b" d="M79.35,34.81v-.6a5.36,5.36,0,0,0,.91.35,4,4,0,0,0,1,.1c1.61,0,2.42-.86,2.42-2.58v-1h0a2.5,2.5,0,0,1-.85.62,2.67,2.67,0,0,1-1.13.25,2.49,2.49,0,0,1-2-.9,3.73,3.73,0,0,1-.74-2.45,3.76,3.76,0,0,1,.77-2.52,2.65,2.65,0,0,1,2.15-.91,2.07,2.07,0,0,1,1.12.28,3,3,0,0,1,.74.59h0l.08-.71h.44v6.74a3.76,3.76,0,0,1-.34,1.75,2.18,2.18,0,0,1-1,1,3.76,3.76,0,0,1-1.67.33,5.39,5.39,0,0,1-1.09-.1A2.57,2.57,0,0,1,79.35,34.81Zm4.32-4.29V26.69a2.14,2.14,0,0,0-.8-.7,2.18,2.18,0,0,0-1.08-.3,2.06,2.06,0,0,0-1.71.78,3.33,3.33,0,0,0-.61,2.13,3.31,3.31,0,0,0,.58,2.11,2,2,0,0,0,1.69.75,2.46,2.46,0,0,0,1-.25A2.93,2.93,0,0,0,83.67,30.52Z"/><path class="b" d="M86.2,28.51a4,4,0,0,1,.36-1.76,2.7,2.7,0,0,1,1-1.16,2.45,2.45,0,0,1,1.38-.4,2.33,2.33,0,0,1,1.8.74,3.33,3.33,0,0,1,.68,2.33v.25h-4.6a3.2,3.2,0,0,0,.67,2.23,2.44,2.44,0,0,0,1.88.72,4.31,4.31,0,0,0,1.82-.37v.52a3.73,3.73,0,0,1-1.82.36A3,3,0,0,1,87,31.06,3.64,3.64,0,0,1,86.2,28.51Zm2.7-2.83a1.87,1.87,0,0,0-1.44.65A2.71,2.71,0,0,0,86.8,28h4a2.86,2.86,0,0,0-.51-1.74A1.72,1.72,0,0,0,88.9,25.68Z"/><path class="b" d="M94,25.35l.11.91h0a3.42,3.42,0,0,1,.93-.81,2.38,2.38,0,0,1,1.15-.26,2.18,2.18,0,0,1,1.33.38,1.85,1.85,0,0,1,.69.93h0a3.32,3.32,0,0,1,1-1,2.31,2.31,0,0,1,1.22-.32,2,2,0,0,1,1.61.61,2.46,2.46,0,0,1,.56,1.71v4.28H102V27.64c0-1.3-.56-1.95-1.66-1.95a1.86,1.86,0,0,0-1.15.36,3.93,3.93,0,0,0-.9,1v4.7h-.55V27.44a1.81,1.81,0,0,0-.44-1.28,1.63,1.63,0,0,0-1.24-.47A2,2,0,0,0,95,26a3.89,3.89,0,0,0-.94.86v4.94h-.55V25.35Z"/><path class="b" d="M104.5,28.51a4.15,4.15,0,0,1,.35-1.76,2.72,2.72,0,0,1,1-1.16,2.4,2.4,0,0,1,1.37-.4,2.34,2.34,0,0,1,1.81.74,3.38,3.38,0,0,1,.68,2.33v.25h-4.6a3.15,3.15,0,0,0,.67,2.23,2.43,2.43,0,0,0,1.88.72,4.35,4.35,0,0,0,1.82-.37v.52a3.79,3.79,0,0,1-1.82.36,3,3,0,0,1-2.32-.91A3.68,3.68,0,0,1,104.5,28.51Zm2.69-2.83a1.87,1.87,0,0,0-1.44.65,2.71,2.71,0,0,0-.66,1.68h4a2.79,2.79,0,0,0-.5-1.74A1.74,1.74,0,0,0,107.19,25.68Z"/><path class="b" d="M112.25,25.35l.09,1h0a2.87,2.87,0,0,1,1-.89,2.4,2.4,0,0,1,1.21-.32,1.93,1.93,0,0,1,1.54.6,2.64,2.64,0,0,1,.52,1.76v4.24H116V27.62a2.33,2.33,0,0,0-.37-1.45,1.44,1.44,0,0,0-1.21-.48,2.07,2.07,0,0,0-1.14.36,3.22,3.22,0,0,0-1,1v4.75h-.55V25.35Z"/><path class="b" d="M119.15,30.26V25.88h-1.28v-.53h1.28V23.63h.55v1.72h2v.53h-2V30.1a1.55,1.55,0,0,0,.29,1,1.22,1.22,0,0,0,.91.31,2.6,2.6,0,0,0,.87-.12v.48a2.88,2.88,0,0,1-1,.15,1.7,1.7,0,0,1-1.21-.43A1.72,1.72,0,0,1,119.15,30.26Z"/></svg>